<mxfile host="app.diagrams.net" modified="2021-04-17T14:51:19.068Z" agent="5.0 (Macintosh; Intel Mac OS X 10_15_6) AppleWebKit/605.1.15 (KHTML, like Gecko) Version/14.0.3 Safari/605.1.15" etag="wN7nMaos-GyTdNrOGD_T" version="14.6.1" type="github">
  <diagram id="12GzKC0HkcYz2X3bTfha" name="Page-1">
    <mxGraphModel dx="2964" dy="1951" grid="1" gridSize="10" guides="1" tooltips="1" connect="1" arrows="1" fold="1" page="1" pageScale="1" pageWidth="827" pageHeight="1169" math="0" shadow="0">
      <root>
        <mxCell id="0" />
        <mxCell id="1" parent="0" />
        <mxCell id="Xh2IqrGV7AuNp1-NNGqW-74" value="" style="rounded=0;whiteSpace=wrap;html=1;rotation=90;" parent="1" vertex="1">
          <mxGeometry x="-1890" y="-93" width="1472.5" height="410" as="geometry" />
        </mxCell>
        <mxCell id="Xh2IqrGV7AuNp1-NNGqW-75" value="&lt;font style=&quot;font-size: 27px&quot; color=&quot;#ff6666&quot;&gt;National Instruments&lt;br&gt;NI myRIO&lt;/font&gt;" style="text;html=1;strokeColor=none;fillColor=none;align=center;verticalAlign=middle;whiteSpace=wrap;rounded=0;" parent="1" vertex="1">
          <mxGeometry x="-1278.75" y="70.93000000000006" width="250" height="100" as="geometry" />
        </mxCell>
        <mxCell id="Xh2IqrGV7AuNp1-NNGqW-76" value="" style="rounded=0;whiteSpace=wrap;html=1;rotation=90;" parent="1" vertex="1">
          <mxGeometry x="-1180.25" y="-392.75" width="410" height="45" as="geometry" />
        </mxCell>
        <mxCell id="Xh2IqrGV7AuNp1-NNGqW-104" style="edgeStyle=orthogonalEdgeStyle;rounded=0;orthogonalLoop=1;jettySize=auto;html=1;exitX=0;exitY=0.5;exitDx=0;exitDy=0;entryX=0;entryY=0.25;entryDx=0;entryDy=0;endSize=6;" parent="1" source="Xh2IqrGV7AuNp1-NNGqW-77" target="Xh2IqrGV7AuNp1-NNGqW-78" edge="1">
          <mxGeometry relative="1" as="geometry">
            <Array as="points">
              <mxPoint x="-1018.75" y="-559.25" />
              <mxPoint x="-1018.75" y="-545.25" />
            </Array>
          </mxGeometry>
        </mxCell>
        <mxCell id="Xh2IqrGV7AuNp1-NNGqW-77" value="5V" style="text;html=1;strokeColor=none;fillColor=none;align=center;verticalAlign=middle;whiteSpace=wrap;rounded=0;" parent="1" vertex="1">
          <mxGeometry x="-995.25" y="-569.25" width="40" height="20" as="geometry" />
        </mxCell>
        <mxCell id="Xh2IqrGV7AuNp1-NNGqW-78" value="DGND" style="text;html=1;strokeColor=none;fillColor=none;align=center;verticalAlign=middle;whiteSpace=wrap;rounded=0;" parent="1" vertex="1">
          <mxGeometry x="-995.25" y="-550.25" width="40" height="20" as="geometry" />
        </mxCell>
        <mxCell id="Xh2IqrGV7AuNp1-NNGqW-79" value="7" style="text;html=1;strokeColor=none;fillColor=none;align=center;verticalAlign=middle;whiteSpace=wrap;rounded=0;" parent="1" vertex="1">
          <mxGeometry x="-995.25" y="-530.25" width="40" height="20" as="geometry" />
        </mxCell>
        <mxCell id="Xh2IqrGV7AuNp1-NNGqW-80" value="6" style="text;html=1;strokeColor=none;fillColor=none;align=center;verticalAlign=middle;whiteSpace=wrap;rounded=0;" parent="1" vertex="1">
          <mxGeometry x="-995.25" y="-510.25" width="40" height="20" as="geometry" />
        </mxCell>
        <mxCell id="Xh2IqrGV7AuNp1-NNGqW-247" style="edgeStyle=orthogonalEdgeStyle;rounded=0;orthogonalLoop=1;jettySize=auto;html=1;exitX=1;exitY=0.5;exitDx=0;exitDy=0;entryX=0;entryY=0.5;entryDx=0;entryDy=0;startArrow=none;startFill=0;endArrow=none;endFill=0;endSize=6;strokeColor=#33FFFF;strokeWidth=3;" parent="1" source="Xh2IqrGV7AuNp1-NNGqW-81" target="Xh2IqrGV7AuNp1-NNGqW-63" edge="1">
          <mxGeometry relative="1" as="geometry">
            <Array as="points">
              <mxPoint x="-600" y="-480" />
              <mxPoint x="-600" y="-585" />
            </Array>
          </mxGeometry>
        </mxCell>
        <mxCell id="Xh2IqrGV7AuNp1-NNGqW-81" value="5" style="text;html=1;strokeColor=none;fillColor=none;align=center;verticalAlign=middle;whiteSpace=wrap;rounded=0;" parent="1" vertex="1">
          <mxGeometry x="-995.25" y="-490.25" width="40" height="20" as="geometry" />
        </mxCell>
        <mxCell id="Xh2IqrGV7AuNp1-NNGqW-246" style="edgeStyle=orthogonalEdgeStyle;rounded=0;orthogonalLoop=1;jettySize=auto;html=1;exitX=1;exitY=0.5;exitDx=0;exitDy=0;entryX=0;entryY=0.5;entryDx=0;entryDy=0;startArrow=none;startFill=0;endArrow=none;endFill=0;endSize=6;strokeColor=#33FFFF;strokeWidth=3;" parent="1" source="Xh2IqrGV7AuNp1-NNGqW-82" target="Xh2IqrGV7AuNp1-NNGqW-64" edge="1">
          <mxGeometry relative="1" as="geometry">
            <Array as="points">
              <mxPoint x="-580" y="-460" />
              <mxPoint x="-580" y="-545" />
            </Array>
          </mxGeometry>
        </mxCell>
        <mxCell id="Xh2IqrGV7AuNp1-NNGqW-82" value="4" style="text;html=1;strokeColor=none;fillColor=none;align=center;verticalAlign=middle;whiteSpace=wrap;rounded=0;" parent="1" vertex="1">
          <mxGeometry x="-995.25" y="-470.25" width="40" height="20" as="geometry" />
        </mxCell>
        <mxCell id="Xh2IqrGV7AuNp1-NNGqW-245" style="edgeStyle=orthogonalEdgeStyle;rounded=0;orthogonalLoop=1;jettySize=auto;html=1;exitX=1;exitY=0.5;exitDx=0;exitDy=0;entryX=0;entryY=0.5;entryDx=0;entryDy=0;startArrow=none;startFill=0;endArrow=none;endFill=0;endSize=6;strokeColor=#33FFFF;strokeWidth=3;" parent="1" source="Xh2IqrGV7AuNp1-NNGqW-83" target="Xh2IqrGV7AuNp1-NNGqW-65" edge="1">
          <mxGeometry relative="1" as="geometry">
            <Array as="points">
              <mxPoint x="-560" y="-440" />
              <mxPoint x="-560" y="-505" />
            </Array>
          </mxGeometry>
        </mxCell>
        <mxCell id="Xh2IqrGV7AuNp1-NNGqW-83" value="3" style="text;html=1;strokeColor=none;fillColor=none;align=center;verticalAlign=middle;whiteSpace=wrap;rounded=0;" parent="1" vertex="1">
          <mxGeometry x="-995.25" y="-450.25" width="40" height="20" as="geometry" />
        </mxCell>
        <mxCell id="Xh2IqrGV7AuNp1-NNGqW-244" style="edgeStyle=orthogonalEdgeStyle;rounded=0;orthogonalLoop=1;jettySize=auto;html=1;exitX=1;exitY=0.5;exitDx=0;exitDy=0;entryX=0;entryY=0.5;entryDx=0;entryDy=0;startArrow=none;startFill=0;endArrow=none;endFill=0;endSize=6;strokeColor=#33FFFF;strokeWidth=3;" parent="1" source="Xh2IqrGV7AuNp1-NNGqW-84" target="Xh2IqrGV7AuNp1-NNGqW-66" edge="1">
          <mxGeometry relative="1" as="geometry">
            <Array as="points">
              <mxPoint x="-540" y="-420" />
              <mxPoint x="-540" y="-465" />
            </Array>
          </mxGeometry>
        </mxCell>
        <mxCell id="Xh2IqrGV7AuNp1-NNGqW-84" value="2" style="text;html=1;strokeColor=none;fillColor=none;align=center;verticalAlign=middle;whiteSpace=wrap;rounded=0;" parent="1" vertex="1">
          <mxGeometry x="-995.25" y="-430.25" width="40" height="20" as="geometry" />
        </mxCell>
        <mxCell id="Xh2IqrGV7AuNp1-NNGqW-243" style="edgeStyle=orthogonalEdgeStyle;rounded=0;orthogonalLoop=1;jettySize=auto;html=1;exitX=1;exitY=0.5;exitDx=0;exitDy=0;entryX=0;entryY=0.5;entryDx=0;entryDy=0;startArrow=none;startFill=0;endArrow=none;endFill=0;endSize=6;strokeColor=#33FFFF;strokeWidth=3;" parent="1" source="Xh2IqrGV7AuNp1-NNGqW-85" target="Xh2IqrGV7AuNp1-NNGqW-67" edge="1">
          <mxGeometry relative="1" as="geometry">
            <Array as="points">
              <mxPoint x="-520" y="-400" />
              <mxPoint x="-520" y="-425" />
              <mxPoint x="-496" y="-425" />
            </Array>
          </mxGeometry>
        </mxCell>
        <mxCell id="Xh2IqrGV7AuNp1-NNGqW-85" value="1" style="text;html=1;strokeColor=none;fillColor=none;align=center;verticalAlign=middle;whiteSpace=wrap;rounded=0;" parent="1" vertex="1">
          <mxGeometry x="-995.25" y="-410.25" width="40" height="20" as="geometry" />
        </mxCell>
        <mxCell id="Xh2IqrGV7AuNp1-NNGqW-105" style="edgeStyle=orthogonalEdgeStyle;rounded=0;orthogonalLoop=1;jettySize=auto;html=1;exitX=1;exitY=0.5;exitDx=0;exitDy=0;entryX=0;entryY=0.75;entryDx=0;entryDy=0;endSize=6;startArrow=none;" parent="1" source="Xh2IqrGV7AuNp1-NNGqW-114" target="Xh2IqrGV7AuNp1-NNGqW-78" edge="1">
          <mxGeometry relative="1" as="geometry" />
        </mxCell>
        <mxCell id="Xh2IqrGV7AuNp1-NNGqW-86" value="0" style="text;html=1;strokeColor=none;fillColor=none;align=center;verticalAlign=middle;whiteSpace=wrap;rounded=0;" parent="1" vertex="1">
          <mxGeometry x="-995.25" y="-390.25" width="40" height="20" as="geometry" />
        </mxCell>
        <mxCell id="Xh2IqrGV7AuNp1-NNGqW-107" style="edgeStyle=orthogonalEdgeStyle;rounded=0;orthogonalLoop=1;jettySize=auto;html=1;exitX=0;exitY=0.5;exitDx=0;exitDy=0;entryX=0;entryY=0.5;entryDx=0;entryDy=0;endSize=6;startArrow=none;" parent="1" source="Xh2IqrGV7AuNp1-NNGqW-116" target="Xh2IqrGV7AuNp1-NNGqW-93" edge="1">
          <mxGeometry relative="1" as="geometry">
            <Array as="points">
              <mxPoint x="-1018.75" y="-284.25" />
            </Array>
          </mxGeometry>
        </mxCell>
        <mxCell id="Xh2IqrGV7AuNp1-NNGqW-89" value="1-" style="text;html=1;strokeColor=none;fillColor=none;align=center;verticalAlign=middle;whiteSpace=wrap;rounded=0;" parent="1" vertex="1">
          <mxGeometry x="-995.25" y="-370.25" width="40" height="20" as="geometry" />
        </mxCell>
        <mxCell id="Xh2IqrGV7AuNp1-NNGqW-90" value="1+" style="text;html=1;strokeColor=none;fillColor=none;align=center;verticalAlign=middle;whiteSpace=wrap;rounded=0;" parent="1" vertex="1">
          <mxGeometry x="-995.25" y="-350.25" width="40" height="20" as="geometry" />
        </mxCell>
        <mxCell id="Xh2IqrGV7AuNp1-NNGqW-91" value="0-" style="text;html=1;strokeColor=none;fillColor=none;align=center;verticalAlign=middle;whiteSpace=wrap;rounded=0;" parent="1" vertex="1">
          <mxGeometry x="-995.25" y="-334.25" width="40" height="20" as="geometry" />
        </mxCell>
        <mxCell id="Xh2IqrGV7AuNp1-NNGqW-92" value="0+" style="text;html=1;strokeColor=none;fillColor=none;align=center;verticalAlign=middle;whiteSpace=wrap;rounded=0;" parent="1" vertex="1">
          <mxGeometry x="-995.25" y="-314.25" width="40" height="20" as="geometry" />
        </mxCell>
        <mxCell id="Xh2IqrGV7AuNp1-NNGqW-93" value="AGND" style="text;html=1;strokeColor=none;fillColor=none;align=center;verticalAlign=middle;whiteSpace=wrap;rounded=0;" parent="1" vertex="1">
          <mxGeometry x="-995.25" y="-294.25" width="40" height="20" as="geometry" />
        </mxCell>
        <mxCell id="Xh2IqrGV7AuNp1-NNGqW-110" style="edgeStyle=orthogonalEdgeStyle;rounded=0;orthogonalLoop=1;jettySize=auto;html=1;exitX=0;exitY=0.5;exitDx=0;exitDy=0;entryX=0;entryY=0.25;entryDx=0;entryDy=0;endSize=6;startArrow=none;" parent="1" source="Xh2IqrGV7AuNp1-NNGqW-118" target="Xh2IqrGV7AuNp1-NNGqW-96" edge="1">
          <mxGeometry relative="1" as="geometry">
            <Array as="points">
              <mxPoint x="-1018.75" y="-229.25" />
            </Array>
          </mxGeometry>
        </mxCell>
        <mxCell id="Xh2IqrGV7AuNp1-NNGqW-94" value="1" style="text;html=1;strokeColor=none;fillColor=none;align=center;verticalAlign=middle;whiteSpace=wrap;rounded=0;" parent="1" vertex="1">
          <mxGeometry x="-995.25" y="-274.25" width="40" height="20" as="geometry" />
        </mxCell>
        <mxCell id="Xh2IqrGV7AuNp1-NNGqW-95" value="0" style="text;html=1;strokeColor=none;fillColor=none;align=center;verticalAlign=middle;whiteSpace=wrap;rounded=0;" parent="1" vertex="1">
          <mxGeometry x="-995.25" y="-254.25" width="40" height="20" as="geometry" />
        </mxCell>
        <mxCell id="Xh2IqrGV7AuNp1-NNGqW-96" value="AGND" style="text;html=1;strokeColor=none;fillColor=none;align=center;verticalAlign=middle;whiteSpace=wrap;rounded=0;" parent="1" vertex="1">
          <mxGeometry x="-995.25" y="-234.25" width="40" height="20" as="geometry" />
        </mxCell>
        <mxCell id="Xh2IqrGV7AuNp1-NNGqW-97" value="-15V" style="text;html=1;strokeColor=none;fillColor=none;align=center;verticalAlign=middle;whiteSpace=wrap;rounded=0;" parent="1" vertex="1">
          <mxGeometry x="-995.25" y="-214.25" width="40" height="20" as="geometry" />
        </mxCell>
        <mxCell id="Xh2IqrGV7AuNp1-NNGqW-112" style="edgeStyle=orthogonalEdgeStyle;rounded=0;orthogonalLoop=1;jettySize=auto;html=1;exitX=0;exitY=0.5;exitDx=0;exitDy=0;entryX=0;entryY=0.75;entryDx=0;entryDy=0;endSize=6;" parent="1" source="Xh2IqrGV7AuNp1-NNGqW-98" target="Xh2IqrGV7AuNp1-NNGqW-96" edge="1">
          <mxGeometry relative="1" as="geometry">
            <Array as="points">
              <mxPoint x="-1018.75" y="-184.25" />
              <mxPoint x="-1018.75" y="-219.25" />
            </Array>
          </mxGeometry>
        </mxCell>
        <mxCell id="Xh2IqrGV7AuNp1-NNGqW-98" value="+15V" style="text;html=1;strokeColor=none;fillColor=none;align=center;verticalAlign=middle;whiteSpace=wrap;rounded=0;" parent="1" vertex="1">
          <mxGeometry x="-995.25" y="-194.25" width="40" height="20" as="geometry" />
        </mxCell>
        <mxCell id="Xh2IqrGV7AuNp1-NNGqW-114" value="DIO (0-5V)" style="text;html=1;strokeColor=none;fillColor=none;align=center;verticalAlign=middle;whiteSpace=wrap;rounded=0;rotation=-90;" parent="1" vertex="1">
          <mxGeometry x="-1048.75" y="-470.25" width="60" height="20" as="geometry" />
        </mxCell>
        <mxCell id="Xh2IqrGV7AuNp1-NNGqW-115" value="" style="edgeStyle=orthogonalEdgeStyle;rounded=0;orthogonalLoop=1;jettySize=auto;html=1;exitX=0;exitY=0.5;exitDx=0;exitDy=0;entryX=0;entryY=0.5;entryDx=0;entryDy=0;endSize=6;endArrow=none;" parent="1" source="Xh2IqrGV7AuNp1-NNGqW-86" target="Xh2IqrGV7AuNp1-NNGqW-114" edge="1">
          <mxGeometry relative="1" as="geometry">
            <mxPoint x="-995.25" y="-380.2500000000001" as="sourcePoint" />
            <mxPoint x="-995.25" y="-535.25" as="targetPoint" />
          </mxGeometry>
        </mxCell>
        <mxCell id="Xh2IqrGV7AuNp1-NNGqW-116" value="&lt;font style=&quot;font-size: 12px&quot;&gt;AI (&lt;span style=&quot;color: rgb(32 , 33 , 36) ; font-family: &amp;#34;arial&amp;#34; , sans-serif ; text-align: left ; background-color: rgb(255 , 255 , 255)&quot;&gt;±10 V)&lt;/span&gt;&lt;/font&gt;" style="text;html=1;strokeColor=none;fillColor=none;align=center;verticalAlign=middle;whiteSpace=wrap;rounded=0;rotation=-90;" parent="1" vertex="1">
          <mxGeometry x="-1048.75" y="-334.25" width="60" height="20" as="geometry" />
        </mxCell>
        <mxCell id="Xh2IqrGV7AuNp1-NNGqW-117" value="" style="edgeStyle=orthogonalEdgeStyle;rounded=0;orthogonalLoop=1;jettySize=auto;html=1;exitX=0;exitY=0.5;exitDx=0;exitDy=0;entryX=1;entryY=0.5;entryDx=0;entryDy=0;endSize=6;endArrow=none;" parent="1" source="Xh2IqrGV7AuNp1-NNGqW-89" target="Xh2IqrGV7AuNp1-NNGqW-116" edge="1">
          <mxGeometry relative="1" as="geometry">
            <mxPoint x="-995.25" y="-360.2500000000001" as="sourcePoint" />
            <mxPoint x="-995.25" y="-284.25" as="targetPoint" />
          </mxGeometry>
        </mxCell>
        <mxCell id="Xh2IqrGV7AuNp1-NNGqW-118" value="AO" style="text;html=1;strokeColor=none;fillColor=none;align=center;verticalAlign=middle;whiteSpace=wrap;rounded=0;rotation=-90;" parent="1" vertex="1">
          <mxGeometry x="-1031.25" y="-256.75" width="25" height="20" as="geometry" />
        </mxCell>
        <mxCell id="Xh2IqrGV7AuNp1-NNGqW-119" value="" style="edgeStyle=orthogonalEdgeStyle;rounded=0;orthogonalLoop=1;jettySize=auto;html=1;exitX=0;exitY=0.5;exitDx=0;exitDy=0;entryX=1;entryY=0.5;entryDx=0;entryDy=0;endSize=6;endArrow=none;" parent="1" source="Xh2IqrGV7AuNp1-NNGqW-94" target="Xh2IqrGV7AuNp1-NNGqW-118" edge="1">
          <mxGeometry relative="1" as="geometry">
            <mxPoint x="-995.25" y="-264.25" as="sourcePoint" />
            <mxPoint x="-995.25" y="-229.25" as="targetPoint" />
            <Array as="points" />
          </mxGeometry>
        </mxCell>
        <mxCell id="Xh2IqrGV7AuNp1-NNGqW-121" value="" style="rounded=0;whiteSpace=wrap;html=1;rotation=90;" parent="1" vertex="1">
          <mxGeometry x="-1674" y="-279.5" width="709.5" height="60" as="geometry" />
        </mxCell>
        <mxCell id="Xh2IqrGV7AuNp1-NNGqW-123" value="A" style="text;html=1;strokeColor=none;fillColor=none;align=center;verticalAlign=middle;whiteSpace=wrap;rounded=0;rotation=-90;" parent="1" vertex="1">
          <mxGeometry x="-1296" y="-264.57" width="40" height="20" as="geometry" />
        </mxCell>
        <mxCell id="Xh2IqrGV7AuNp1-NNGqW-124" value="1" style="text;html=1;strokeColor=none;fillColor=none;align=center;verticalAlign=middle;whiteSpace=wrap;rounded=0;rotation=-90;" parent="1" vertex="1">
          <mxGeometry x="-1343" y="-578.94" width="10" height="10" as="geometry" />
        </mxCell>
        <mxCell id="Xh2IqrGV7AuNp1-NNGqW-125" value="2" style="text;html=1;strokeColor=none;fillColor=none;align=center;verticalAlign=middle;whiteSpace=wrap;rounded=0;rotation=-90;" parent="1" vertex="1">
          <mxGeometry x="-1306" y="-559" width="10" height="10" as="geometry" />
        </mxCell>
        <mxCell id="Xh2IqrGV7AuNp1-NNGqW-126" value="3" style="text;html=1;strokeColor=none;fillColor=none;align=center;verticalAlign=middle;whiteSpace=wrap;rounded=0;rotation=-90;" parent="1" vertex="1">
          <mxGeometry x="-1343" y="-539" width="10" height="10" as="geometry" />
        </mxCell>
        <mxCell id="Xh2IqrGV7AuNp1-NNGqW-127" value="4" style="text;html=1;strokeColor=none;fillColor=none;align=center;verticalAlign=middle;whiteSpace=wrap;rounded=0;rotation=-90;" parent="1" vertex="1">
          <mxGeometry x="-1306" y="-520.5699999999999" width="10" height="10" as="geometry" />
        </mxCell>
        <mxCell id="Xh2IqrGV7AuNp1-NNGqW-128" value="5" style="text;html=1;strokeColor=none;fillColor=none;align=center;verticalAlign=middle;whiteSpace=wrap;rounded=0;rotation=-90;" parent="1" vertex="1">
          <mxGeometry x="-1343" y="-499.57" width="10" height="10" as="geometry" />
        </mxCell>
        <mxCell id="Xh2IqrGV7AuNp1-NNGqW-129" value="6" style="text;html=1;strokeColor=none;fillColor=none;align=center;verticalAlign=middle;whiteSpace=wrap;rounded=0;rotation=-90;" parent="1" vertex="1">
          <mxGeometry x="-1306" y="-480.57" width="10" height="10" as="geometry" />
        </mxCell>
        <mxCell id="Xh2IqrGV7AuNp1-NNGqW-130" value="7" style="text;html=1;strokeColor=none;fillColor=none;align=center;verticalAlign=middle;whiteSpace=wrap;rounded=0;rotation=-90;" parent="1" vertex="1">
          <mxGeometry x="-1343" y="-460.57" width="10" height="10" as="geometry" />
        </mxCell>
        <mxCell id="Xh2IqrGV7AuNp1-NNGqW-131" value="8" style="text;html=1;strokeColor=none;fillColor=none;align=center;verticalAlign=middle;whiteSpace=wrap;rounded=0;rotation=-90;" parent="1" vertex="1">
          <mxGeometry x="-1306" y="-440.57" width="10" height="10" as="geometry" />
        </mxCell>
        <mxCell id="Xh2IqrGV7AuNp1-NNGqW-132" value="9" style="text;html=1;strokeColor=none;fillColor=none;align=center;verticalAlign=middle;whiteSpace=wrap;rounded=0;rotation=-90;" parent="1" vertex="1">
          <mxGeometry x="-1343" y="-420.57" width="10" height="10" as="geometry" />
        </mxCell>
        <mxCell id="Xh2IqrGV7AuNp1-NNGqW-133" value="10" style="text;html=1;strokeColor=none;fillColor=none;align=center;verticalAlign=middle;whiteSpace=wrap;rounded=0;rotation=-90;" parent="1" vertex="1">
          <mxGeometry x="-1306" y="-399.57" width="10" height="10" as="geometry" />
        </mxCell>
        <mxCell id="Xh2IqrGV7AuNp1-NNGqW-134" value="11" style="text;html=1;strokeColor=none;fillColor=none;align=center;verticalAlign=middle;whiteSpace=wrap;rounded=0;rotation=-90;" parent="1" vertex="1">
          <mxGeometry x="-1343" y="-378.07" width="10" height="10" as="geometry" />
        </mxCell>
        <mxCell id="Xh2IqrGV7AuNp1-NNGqW-135" value="12" style="text;html=1;strokeColor=none;fillColor=none;align=center;verticalAlign=middle;whiteSpace=wrap;rounded=0;rotation=-90;" parent="1" vertex="1">
          <mxGeometry x="-1306" y="-358.32" width="10" height="10" as="geometry" />
        </mxCell>
        <mxCell id="Xh2IqrGV7AuNp1-NNGqW-142" value="13" style="text;html=1;strokeColor=none;fillColor=none;align=center;verticalAlign=middle;whiteSpace=wrap;rounded=0;rotation=-90;" parent="1" vertex="1">
          <mxGeometry x="-1343" y="-337.57" width="10" height="10" as="geometry" />
        </mxCell>
        <mxCell id="Xh2IqrGV7AuNp1-NNGqW-143" value="14" style="text;html=1;strokeColor=none;fillColor=none;align=center;verticalAlign=middle;whiteSpace=wrap;rounded=0;rotation=-90;" parent="1" vertex="1">
          <mxGeometry x="-1306" y="-319.57" width="10" height="10" as="geometry" />
        </mxCell>
        <mxCell id="Xh2IqrGV7AuNp1-NNGqW-144" value="15" style="text;html=1;strokeColor=none;fillColor=none;align=center;verticalAlign=middle;whiteSpace=wrap;rounded=0;rotation=-90;" parent="1" vertex="1">
          <mxGeometry x="-1343" y="-298.57" width="10" height="10" as="geometry" />
        </mxCell>
        <mxCell id="Xh2IqrGV7AuNp1-NNGqW-145" value="16" style="text;html=1;strokeColor=none;fillColor=none;align=center;verticalAlign=middle;whiteSpace=wrap;rounded=0;rotation=-90;" parent="1" vertex="1">
          <mxGeometry x="-1306" y="-278.57" width="10" height="10" as="geometry" />
        </mxCell>
        <mxCell id="Xh2IqrGV7AuNp1-NNGqW-146" value="17" style="text;html=1;strokeColor=none;fillColor=none;align=center;verticalAlign=middle;whiteSpace=wrap;rounded=0;rotation=-90;" parent="1" vertex="1">
          <mxGeometry x="-1343" y="-259.57" width="10" height="10" as="geometry" />
        </mxCell>
        <mxCell id="Xh2IqrGV7AuNp1-NNGqW-147" value="18" style="text;html=1;strokeColor=none;fillColor=none;align=center;verticalAlign=middle;whiteSpace=wrap;rounded=0;rotation=-90;" parent="1" vertex="1">
          <mxGeometry x="-1306" y="-239.57" width="10" height="10" as="geometry" />
        </mxCell>
        <mxCell id="Xh2IqrGV7AuNp1-NNGqW-148" value="19" style="text;html=1;strokeColor=none;fillColor=none;align=center;verticalAlign=middle;whiteSpace=wrap;rounded=0;rotation=-90;" parent="1" vertex="1">
          <mxGeometry x="-1343" y="-219.57" width="10" height="10" as="geometry" />
        </mxCell>
        <mxCell id="Xh2IqrGV7AuNp1-NNGqW-149" value="20" style="text;html=1;strokeColor=none;fillColor=none;align=center;verticalAlign=middle;whiteSpace=wrap;rounded=0;rotation=-90;" parent="1" vertex="1">
          <mxGeometry x="-1306" y="-199.57" width="10" height="10" as="geometry" />
        </mxCell>
        <mxCell id="Xh2IqrGV7AuNp1-NNGqW-150" value="21" style="text;html=1;strokeColor=none;fillColor=none;align=center;verticalAlign=middle;whiteSpace=wrap;rounded=0;rotation=-90;" parent="1" vertex="1">
          <mxGeometry x="-1343" y="-179.57" width="10" height="10" as="geometry" />
        </mxCell>
        <mxCell id="Xh2IqrGV7AuNp1-NNGqW-151" value="22" style="text;html=1;strokeColor=none;fillColor=none;align=center;verticalAlign=middle;whiteSpace=wrap;rounded=0;rotation=-90;" parent="1" vertex="1">
          <mxGeometry x="-1306" y="-159.57" width="10" height="10" as="geometry" />
        </mxCell>
        <mxCell id="Xh2IqrGV7AuNp1-NNGqW-152" value="23" style="text;html=1;strokeColor=none;fillColor=none;align=center;verticalAlign=middle;whiteSpace=wrap;rounded=0;rotation=-90;" parent="1" vertex="1">
          <mxGeometry x="-1343" y="-139.57000000000005" width="10" height="10" as="geometry" />
        </mxCell>
        <mxCell id="Xh2IqrGV7AuNp1-NNGqW-153" value="24" style="text;html=1;strokeColor=none;fillColor=none;align=center;verticalAlign=middle;whiteSpace=wrap;rounded=0;rotation=-90;" parent="1" vertex="1">
          <mxGeometry x="-1306" y="-119.57000000000005" width="10" height="10" as="geometry" />
        </mxCell>
        <mxCell id="Xh2IqrGV7AuNp1-NNGqW-154" value="25" style="text;html=1;strokeColor=none;fillColor=none;align=center;verticalAlign=middle;whiteSpace=wrap;rounded=0;rotation=-90;" parent="1" vertex="1">
          <mxGeometry x="-1343" y="-99.57000000000005" width="10" height="10" as="geometry" />
        </mxCell>
        <mxCell id="Xh2IqrGV7AuNp1-NNGqW-155" value="26" style="text;html=1;strokeColor=none;fillColor=none;align=center;verticalAlign=middle;whiteSpace=wrap;rounded=0;rotation=-90;" parent="1" vertex="1">
          <mxGeometry x="-1306" y="-79.57000000000005" width="10" height="10" as="geometry" />
        </mxCell>
        <mxCell id="Xh2IqrGV7AuNp1-NNGqW-156" value="27" style="text;html=1;strokeColor=none;fillColor=none;align=center;verticalAlign=middle;whiteSpace=wrap;rounded=0;rotation=-90;" parent="1" vertex="1">
          <mxGeometry x="-1343" y="-59.82000000000005" width="10" height="10" as="geometry" />
        </mxCell>
        <mxCell id="Xh2IqrGV7AuNp1-NNGqW-157" value="28" style="text;html=1;strokeColor=none;fillColor=none;align=center;verticalAlign=middle;whiteSpace=wrap;rounded=0;rotation=-90;" parent="1" vertex="1">
          <mxGeometry x="-1306" y="-39.57000000000005" width="10" height="10" as="geometry" />
        </mxCell>
        <mxCell id="Xh2IqrGV7AuNp1-NNGqW-158" value="29" style="text;html=1;strokeColor=none;fillColor=none;align=center;verticalAlign=middle;whiteSpace=wrap;rounded=0;rotation=-90;" parent="1" vertex="1">
          <mxGeometry x="-1343" y="-19.57000000000005" width="10" height="10" as="geometry" />
        </mxCell>
        <mxCell id="Xh2IqrGV7AuNp1-NNGqW-159" value="30" style="text;html=1;strokeColor=none;fillColor=none;align=center;verticalAlign=middle;whiteSpace=wrap;rounded=0;rotation=-90;" parent="1" vertex="1">
          <mxGeometry x="-1306" y="0.42999999999995" width="10" height="10" as="geometry" />
        </mxCell>
        <mxCell id="Xh2IqrGV7AuNp1-NNGqW-160" value="31" style="text;html=1;strokeColor=none;fillColor=none;align=center;verticalAlign=middle;whiteSpace=wrap;rounded=0;rotation=-90;" parent="1" vertex="1">
          <mxGeometry x="-1343" y="20.42999999999995" width="10" height="10" as="geometry" />
        </mxCell>
        <mxCell id="Xh2IqrGV7AuNp1-NNGqW-161" value="32" style="text;html=1;strokeColor=none;fillColor=none;align=center;verticalAlign=middle;whiteSpace=wrap;rounded=0;rotation=-90;" parent="1" vertex="1">
          <mxGeometry x="-1306" y="44.930000000000064" width="10" height="10" as="geometry" />
        </mxCell>
        <mxCell id="Xh2IqrGV7AuNp1-NNGqW-162" value="33" style="text;html=1;strokeColor=none;fillColor=none;align=center;verticalAlign=middle;whiteSpace=wrap;rounded=0;rotation=-90;" parent="1" vertex="1">
          <mxGeometry x="-1343" y="60.930000000000064" width="10" height="10" as="geometry" />
        </mxCell>
        <mxCell id="Xh2IqrGV7AuNp1-NNGqW-163" value="34" style="text;html=1;strokeColor=none;fillColor=none;align=center;verticalAlign=middle;whiteSpace=wrap;rounded=0;rotation=-90;" parent="1" vertex="1">
          <mxGeometry x="-1306" y="80.43000000000006" width="10" height="10" as="geometry" />
        </mxCell>
        <mxCell id="Xh2IqrGV7AuNp1-NNGqW-170" value="" style="rounded=0;whiteSpace=wrap;html=1;rotation=90;" parent="1" vertex="1">
          <mxGeometry x="-1674" y="455.19000000000005" width="709.5" height="60" as="geometry" />
        </mxCell>
        <mxCell id="Xh2IqrGV7AuNp1-NNGqW-171" value="B" style="text;html=1;strokeColor=none;fillColor=none;align=center;verticalAlign=middle;whiteSpace=wrap;rounded=0;rotation=-90;" parent="1" vertex="1">
          <mxGeometry x="-1296" y="470.1200000000001" width="40" height="20" as="geometry" />
        </mxCell>
        <mxCell id="Xh2IqrGV7AuNp1-NNGqW-172" value="1" style="text;html=1;strokeColor=none;fillColor=none;align=center;verticalAlign=middle;whiteSpace=wrap;rounded=0;rotation=-90;" parent="1" vertex="1">
          <mxGeometry x="-1343" y="155.75" width="10" height="10" as="geometry" />
        </mxCell>
        <mxCell id="Xh2IqrGV7AuNp1-NNGqW-173" value="2" style="text;html=1;strokeColor=none;fillColor=none;align=center;verticalAlign=middle;whiteSpace=wrap;rounded=0;rotation=-90;" parent="1" vertex="1">
          <mxGeometry x="-1306" y="175.69000000000005" width="10" height="10" as="geometry" />
        </mxCell>
        <mxCell id="Xh2IqrGV7AuNp1-NNGqW-174" value="3" style="text;html=1;strokeColor=none;fillColor=none;align=center;verticalAlign=middle;whiteSpace=wrap;rounded=0;rotation=-90;" parent="1" vertex="1">
          <mxGeometry x="-1343" y="195.69000000000005" width="10" height="10" as="geometry" />
        </mxCell>
        <mxCell id="Xh2IqrGV7AuNp1-NNGqW-175" value="4" style="text;html=1;strokeColor=none;fillColor=none;align=center;verticalAlign=middle;whiteSpace=wrap;rounded=0;rotation=-90;" parent="1" vertex="1">
          <mxGeometry x="-1306" y="214.12000000000012" width="10" height="10" as="geometry" />
        </mxCell>
        <mxCell id="Xh2IqrGV7AuNp1-NNGqW-176" value="5" style="text;html=1;strokeColor=none;fillColor=none;align=center;verticalAlign=middle;whiteSpace=wrap;rounded=0;rotation=-90;" parent="1" vertex="1">
          <mxGeometry x="-1343" y="235.12000000000012" width="10" height="10" as="geometry" />
        </mxCell>
        <mxCell id="Xh2IqrGV7AuNp1-NNGqW-177" value="6" style="text;html=1;strokeColor=none;fillColor=none;align=center;verticalAlign=middle;whiteSpace=wrap;rounded=0;rotation=-90;" parent="1" vertex="1">
          <mxGeometry x="-1306" y="254.12000000000012" width="10" height="10" as="geometry" />
        </mxCell>
        <mxCell id="Xh2IqrGV7AuNp1-NNGqW-178" value="7" style="text;html=1;strokeColor=none;fillColor=none;align=center;verticalAlign=middle;whiteSpace=wrap;rounded=0;rotation=-90;" parent="1" vertex="1">
          <mxGeometry x="-1343" y="274.1200000000001" width="10" height="10" as="geometry" />
        </mxCell>
        <mxCell id="Xh2IqrGV7AuNp1-NNGqW-179" value="8" style="text;html=1;strokeColor=none;fillColor=none;align=center;verticalAlign=middle;whiteSpace=wrap;rounded=0;rotation=-90;" parent="1" vertex="1">
          <mxGeometry x="-1306" y="294.1200000000001" width="10" height="10" as="geometry" />
        </mxCell>
        <mxCell id="Xh2IqrGV7AuNp1-NNGqW-180" value="9" style="text;html=1;strokeColor=none;fillColor=none;align=center;verticalAlign=middle;whiteSpace=wrap;rounded=0;rotation=-90;" parent="1" vertex="1">
          <mxGeometry x="-1343" y="314.1200000000001" width="10" height="10" as="geometry" />
        </mxCell>
        <mxCell id="Xh2IqrGV7AuNp1-NNGqW-181" value="10" style="text;html=1;strokeColor=none;fillColor=none;align=center;verticalAlign=middle;whiteSpace=wrap;rounded=0;rotation=-90;" parent="1" vertex="1">
          <mxGeometry x="-1306" y="335.1200000000001" width="10" height="10" as="geometry" />
        </mxCell>
        <mxCell id="Xh2IqrGV7AuNp1-NNGqW-182" value="11" style="text;html=1;strokeColor=none;fillColor=none;align=center;verticalAlign=middle;whiteSpace=wrap;rounded=0;rotation=-90;" parent="1" vertex="1">
          <mxGeometry x="-1343" y="356.6200000000001" width="10" height="10" as="geometry" />
        </mxCell>
        <mxCell id="Xh2IqrGV7AuNp1-NNGqW-183" value="12" style="text;html=1;strokeColor=none;fillColor=none;align=center;verticalAlign=middle;whiteSpace=wrap;rounded=0;rotation=-90;" parent="1" vertex="1">
          <mxGeometry x="-1306" y="376.3700000000001" width="10" height="10" as="geometry" />
        </mxCell>
        <mxCell id="Xh2IqrGV7AuNp1-NNGqW-184" value="13" style="text;html=1;strokeColor=none;fillColor=none;align=center;verticalAlign=middle;whiteSpace=wrap;rounded=0;rotation=-90;" parent="1" vertex="1">
          <mxGeometry x="-1343" y="397.1200000000001" width="10" height="10" as="geometry" />
        </mxCell>
        <mxCell id="Xh2IqrGV7AuNp1-NNGqW-185" value="14" style="text;html=1;strokeColor=none;fillColor=none;align=center;verticalAlign=middle;whiteSpace=wrap;rounded=0;rotation=-90;" parent="1" vertex="1">
          <mxGeometry x="-1306" y="415.1200000000001" width="10" height="10" as="geometry" />
        </mxCell>
        <mxCell id="Xh2IqrGV7AuNp1-NNGqW-186" value="15" style="text;html=1;strokeColor=none;fillColor=none;align=center;verticalAlign=middle;whiteSpace=wrap;rounded=0;rotation=-90;" parent="1" vertex="1">
          <mxGeometry x="-1343" y="436.1200000000001" width="10" height="10" as="geometry" />
        </mxCell>
        <mxCell id="Xh2IqrGV7AuNp1-NNGqW-187" value="16" style="text;html=1;strokeColor=none;fillColor=none;align=center;verticalAlign=middle;whiteSpace=wrap;rounded=0;rotation=-90;" parent="1" vertex="1">
          <mxGeometry x="-1306" y="456.1200000000001" width="10" height="10" as="geometry" />
        </mxCell>
        <mxCell id="Xh2IqrGV7AuNp1-NNGqW-188" value="17" style="text;html=1;strokeColor=none;fillColor=none;align=center;verticalAlign=middle;whiteSpace=wrap;rounded=0;rotation=-90;" parent="1" vertex="1">
          <mxGeometry x="-1343" y="475.1200000000001" width="10" height="10" as="geometry" />
        </mxCell>
        <mxCell id="Xh2IqrGV7AuNp1-NNGqW-189" value="18" style="text;html=1;strokeColor=none;fillColor=none;align=center;verticalAlign=middle;whiteSpace=wrap;rounded=0;rotation=-90;" parent="1" vertex="1">
          <mxGeometry x="-1306" y="495.1200000000001" width="10" height="10" as="geometry" />
        </mxCell>
        <mxCell id="Xh2IqrGV7AuNp1-NNGqW-190" value="19" style="text;html=1;strokeColor=none;fillColor=none;align=center;verticalAlign=middle;whiteSpace=wrap;rounded=0;rotation=-90;" parent="1" vertex="1">
          <mxGeometry x="-1343" y="515.1200000000001" width="10" height="10" as="geometry" />
        </mxCell>
        <mxCell id="Xh2IqrGV7AuNp1-NNGqW-191" value="20" style="text;html=1;strokeColor=none;fillColor=none;align=center;verticalAlign=middle;whiteSpace=wrap;rounded=0;rotation=-90;" parent="1" vertex="1">
          <mxGeometry x="-1306" y="535.1200000000001" width="10" height="10" as="geometry" />
        </mxCell>
        <mxCell id="Xh2IqrGV7AuNp1-NNGqW-192" value="21" style="text;html=1;strokeColor=none;fillColor=none;align=center;verticalAlign=middle;whiteSpace=wrap;rounded=0;rotation=-90;" parent="1" vertex="1">
          <mxGeometry x="-1343" y="555.1200000000001" width="10" height="10" as="geometry" />
        </mxCell>
        <mxCell id="Xh2IqrGV7AuNp1-NNGqW-193" value="22" style="text;html=1;strokeColor=none;fillColor=none;align=center;verticalAlign=middle;whiteSpace=wrap;rounded=0;rotation=-90;" parent="1" vertex="1">
          <mxGeometry x="-1306" y="575.1200000000001" width="10" height="10" as="geometry" />
        </mxCell>
        <mxCell id="Xh2IqrGV7AuNp1-NNGqW-194" value="23" style="text;html=1;strokeColor=none;fillColor=none;align=center;verticalAlign=middle;whiteSpace=wrap;rounded=0;rotation=-90;" parent="1" vertex="1">
          <mxGeometry x="-1343" y="595.1199999999999" width="10" height="10" as="geometry" />
        </mxCell>
        <mxCell id="Xh2IqrGV7AuNp1-NNGqW-195" value="24" style="text;html=1;strokeColor=none;fillColor=none;align=center;verticalAlign=middle;whiteSpace=wrap;rounded=0;rotation=-90;" parent="1" vertex="1">
          <mxGeometry x="-1306" y="615.1199999999999" width="10" height="10" as="geometry" />
        </mxCell>
        <mxCell id="Xh2IqrGV7AuNp1-NNGqW-196" value="25" style="text;html=1;strokeColor=none;fillColor=none;align=center;verticalAlign=middle;whiteSpace=wrap;rounded=0;rotation=-90;" parent="1" vertex="1">
          <mxGeometry x="-1343" y="635.1199999999999" width="10" height="10" as="geometry" />
        </mxCell>
        <mxCell id="Xh2IqrGV7AuNp1-NNGqW-197" value="26" style="text;html=1;strokeColor=none;fillColor=none;align=center;verticalAlign=middle;whiteSpace=wrap;rounded=0;rotation=-90;" parent="1" vertex="1">
          <mxGeometry x="-1306" y="655.1199999999999" width="10" height="10" as="geometry" />
        </mxCell>
        <mxCell id="Xh2IqrGV7AuNp1-NNGqW-198" value="27" style="text;html=1;strokeColor=none;fillColor=none;align=center;verticalAlign=middle;whiteSpace=wrap;rounded=0;rotation=-90;" parent="1" vertex="1">
          <mxGeometry x="-1343" y="674.8699999999999" width="10" height="10" as="geometry" />
        </mxCell>
        <mxCell id="Xh2IqrGV7AuNp1-NNGqW-199" value="28" style="text;html=1;strokeColor=none;fillColor=none;align=center;verticalAlign=middle;whiteSpace=wrap;rounded=0;rotation=-90;" parent="1" vertex="1">
          <mxGeometry x="-1306" y="695.1199999999999" width="10" height="10" as="geometry" />
        </mxCell>
        <mxCell id="Xh2IqrGV7AuNp1-NNGqW-200" value="29" style="text;html=1;strokeColor=none;fillColor=none;align=center;verticalAlign=middle;whiteSpace=wrap;rounded=0;rotation=-90;" parent="1" vertex="1">
          <mxGeometry x="-1343" y="715.1199999999999" width="10" height="10" as="geometry" />
        </mxCell>
        <mxCell id="Xh2IqrGV7AuNp1-NNGqW-201" value="30" style="text;html=1;strokeColor=none;fillColor=none;align=center;verticalAlign=middle;whiteSpace=wrap;rounded=0;rotation=-90;" parent="1" vertex="1">
          <mxGeometry x="-1306" y="735.1199999999999" width="10" height="10" as="geometry" />
        </mxCell>
        <mxCell id="Xh2IqrGV7AuNp1-NNGqW-202" value="31" style="text;html=1;strokeColor=none;fillColor=none;align=center;verticalAlign=middle;whiteSpace=wrap;rounded=0;rotation=-90;" parent="1" vertex="1">
          <mxGeometry x="-1343" y="755.1199999999999" width="10" height="10" as="geometry" />
        </mxCell>
        <mxCell id="Xh2IqrGV7AuNp1-NNGqW-203" value="32" style="text;html=1;strokeColor=none;fillColor=none;align=center;verticalAlign=middle;whiteSpace=wrap;rounded=0;rotation=-90;" parent="1" vertex="1">
          <mxGeometry x="-1306" y="779.6200000000001" width="10" height="10" as="geometry" />
        </mxCell>
        <mxCell id="Xh2IqrGV7AuNp1-NNGqW-204" value="33" style="text;html=1;strokeColor=none;fillColor=none;align=center;verticalAlign=middle;whiteSpace=wrap;rounded=0;rotation=-90;" parent="1" vertex="1">
          <mxGeometry x="-1343" y="795.6200000000001" width="10" height="10" as="geometry" />
        </mxCell>
        <mxCell id="Xh2IqrGV7AuNp1-NNGqW-205" value="34" style="text;html=1;strokeColor=none;fillColor=none;align=center;verticalAlign=middle;whiteSpace=wrap;rounded=0;rotation=-90;" parent="1" vertex="1">
          <mxGeometry x="-1306" y="815.1200000000001" width="10" height="10" as="geometry" />
        </mxCell>
        <mxCell id="Xh2IqrGV7AuNp1-NNGqW-206" value="C" style="text;html=1;strokeColor=none;fillColor=none;align=center;verticalAlign=middle;whiteSpace=wrap;rounded=0;rotation=-90;" parent="1" vertex="1">
          <mxGeometry x="-1068.75" y="-388.07" width="40" height="20" as="geometry" />
        </mxCell>
        <mxCell id="Xh2IqrGV7AuNp1-NNGqW-210" value="" style="group" parent="1" vertex="1" connectable="0">
          <mxGeometry x="-500" y="-745.25" width="220" height="434" as="geometry" />
        </mxCell>
        <mxCell id="Xh2IqrGV7AuNp1-NNGqW-69" value="" style="rounded=0;whiteSpace=wrap;html=1;rotation=90;" parent="Xh2IqrGV7AuNp1-NNGqW-210" vertex="1">
          <mxGeometry x="-107" y="107" width="434" height="220" as="geometry" />
        </mxCell>
        <mxCell id="Xh2IqrGV7AuNp1-NNGqW-37" value="ENABLE" style="text;html=1;strokeColor=none;fillColor=none;align=left;verticalAlign=middle;whiteSpace=wrap;rounded=0;" parent="Xh2IqrGV7AuNp1-NNGqW-210" vertex="1">
          <mxGeometry x="4" width="70" height="20" as="geometry" />
        </mxCell>
        <mxCell id="Xh2IqrGV7AuNp1-NNGqW-45" value="DIRECTION" style="text;html=1;strokeColor=none;fillColor=none;align=left;verticalAlign=middle;whiteSpace=wrap;rounded=0;" parent="Xh2IqrGV7AuNp1-NNGqW-210" vertex="1">
          <mxGeometry x="4" y="120" width="120" height="20" as="geometry" />
        </mxCell>
        <mxCell id="Xh2IqrGV7AuNp1-NNGqW-48" value="5V myRIO" style="text;html=1;strokeColor=none;fillColor=none;align=left;verticalAlign=middle;whiteSpace=wrap;rounded=0;" parent="Xh2IqrGV7AuNp1-NNGqW-210" vertex="1">
          <mxGeometry x="4" y="390" width="70" height="20" as="geometry" />
        </mxCell>
        <mxCell id="Xh2IqrGV7AuNp1-NNGqW-50" value="STEP" style="text;html=1;strokeColor=none;fillColor=none;align=left;verticalAlign=middle;whiteSpace=wrap;rounded=0;" parent="Xh2IqrGV7AuNp1-NNGqW-210" vertex="1">
          <mxGeometry x="4" y="100" width="40" height="20" as="geometry" />
        </mxCell>
        <mxCell id="Xh2IqrGV7AuNp1-NNGqW-52" value="MS1" style="text;html=1;strokeColor=none;fillColor=none;align=left;verticalAlign=middle;whiteSpace=wrap;rounded=0;" parent="Xh2IqrGV7AuNp1-NNGqW-210" vertex="1">
          <mxGeometry x="4" y="20" width="40" height="20" as="geometry" />
        </mxCell>
        <mxCell id="Xh2IqrGV7AuNp1-NNGqW-53" value="MS2" style="text;html=1;strokeColor=none;fillColor=none;align=left;verticalAlign=middle;whiteSpace=wrap;rounded=0;" parent="Xh2IqrGV7AuNp1-NNGqW-210" vertex="1">
          <mxGeometry x="4" y="40" width="40" height="20" as="geometry" />
        </mxCell>
        <mxCell id="Xh2IqrGV7AuNp1-NNGqW-54" value="MS3" style="text;html=1;strokeColor=none;fillColor=none;align=left;verticalAlign=middle;whiteSpace=wrap;rounded=0;" parent="Xh2IqrGV7AuNp1-NNGqW-210" vertex="1">
          <mxGeometry x="4" y="60" width="40" height="20" as="geometry" />
        </mxCell>
        <mxCell id="Xh2IqrGV7AuNp1-NNGqW-55" value="GND" style="text;html=1;strokeColor=none;fillColor=none;align=left;verticalAlign=middle;whiteSpace=wrap;rounded=0;" parent="Xh2IqrGV7AuNp1-NNGqW-210" vertex="1">
          <mxGeometry x="4" y="410" width="40" height="20" as="geometry" />
        </mxCell>
        <mxCell id="Xh2IqrGV7AuNp1-NNGqW-56" value="RESET" style="text;html=1;strokeColor=none;fillColor=none;align=left;verticalAlign=middle;whiteSpace=wrap;rounded=0;" parent="Xh2IqrGV7AuNp1-NNGqW-210" vertex="1">
          <mxGeometry x="4" y="80" width="40" height="20" as="geometry" />
        </mxCell>
        <mxCell id="Xh2IqrGV7AuNp1-NNGqW-63" value="&lt;strike&gt;SLEEP&lt;/strike&gt;&lt;br&gt;C/DIO 5" style="text;html=1;strokeColor=none;fillColor=none;align=left;verticalAlign=middle;whiteSpace=wrap;rounded=0;" parent="Xh2IqrGV7AuNp1-NNGqW-210" vertex="1">
          <mxGeometry x="4" y="150" width="48" height="20" as="geometry" />
        </mxCell>
        <mxCell id="Xh2IqrGV7AuNp1-NNGqW-64" value="&lt;strike&gt;SLEEP&lt;/strike&gt;&lt;br&gt;C/DIO 4" style="text;html=1;strokeColor=none;fillColor=none;align=left;verticalAlign=middle;whiteSpace=wrap;rounded=0;" parent="Xh2IqrGV7AuNp1-NNGqW-210" vertex="1">
          <mxGeometry x="4" y="190" width="48" height="20" as="geometry" />
        </mxCell>
        <mxCell id="Xh2IqrGV7AuNp1-NNGqW-65" value="&lt;strike&gt;SLEEP&lt;/strike&gt;&lt;br&gt;C/DIO 3" style="text;html=1;strokeColor=none;fillColor=none;align=left;verticalAlign=middle;whiteSpace=wrap;rounded=0;" parent="Xh2IqrGV7AuNp1-NNGqW-210" vertex="1">
          <mxGeometry x="4" y="230" width="48" height="20" as="geometry" />
        </mxCell>
        <mxCell id="Xh2IqrGV7AuNp1-NNGqW-66" value="&lt;strike&gt;SLEEP&lt;/strike&gt;&lt;br&gt;C/DIO 2" style="text;html=1;strokeColor=none;fillColor=none;align=left;verticalAlign=middle;whiteSpace=wrap;rounded=0;" parent="Xh2IqrGV7AuNp1-NNGqW-210" vertex="1">
          <mxGeometry x="4" y="270" width="48" height="20" as="geometry" />
        </mxCell>
        <mxCell id="Xh2IqrGV7AuNp1-NNGqW-67" value="&lt;strike&gt;SLEEP&lt;/strike&gt;&lt;br&gt;C/DIO 1" style="text;html=1;strokeColor=none;fillColor=none;align=left;verticalAlign=middle;whiteSpace=wrap;rounded=0;" parent="Xh2IqrGV7AuNp1-NNGqW-210" vertex="1">
          <mxGeometry x="4" y="310" width="48" height="20" as="geometry" />
        </mxCell>
        <mxCell id="Xh2IqrGV7AuNp1-NNGqW-68" value="&lt;strike&gt;SLEEP&lt;/strike&gt;&lt;br&gt;C/DIO 0" style="text;html=1;strokeColor=none;fillColor=none;align=left;verticalAlign=middle;whiteSpace=wrap;rounded=0;" parent="Xh2IqrGV7AuNp1-NNGqW-210" vertex="1">
          <mxGeometry x="4" y="350" width="48" height="30" as="geometry" />
        </mxCell>
        <mxCell id="Xh2IqrGV7AuNp1-NNGqW-72" value="&lt;font style=&quot;font-size: 23px&quot; color=&quot;#ff6666&quot;&gt;Driver Board&lt;/font&gt;" style="text;html=1;strokeColor=none;fillColor=none;align=left;verticalAlign=middle;whiteSpace=wrap;rounded=0;" parent="Xh2IqrGV7AuNp1-NNGqW-210" vertex="1">
          <mxGeometry x="134" y="200" width="70" height="20" as="geometry" />
        </mxCell>
        <mxCell id="Xh2IqrGV7AuNp1-NNGqW-239" value="" style="group" parent="1" vertex="1" connectable="0">
          <mxGeometry x="-440" y="220" width="119.68" height="170" as="geometry" />
        </mxCell>
        <mxCell id="Xh2IqrGV7AuNp1-NNGqW-222" value="" style="rounded=0;whiteSpace=wrap;html=1;rotation=90;" parent="Xh2IqrGV7AuNp1-NNGqW-239" vertex="1">
          <mxGeometry x="-25.160000000000025" y="25.159999999999968" width="170" height="119.68" as="geometry" />
        </mxCell>
        <mxCell id="Xh2IqrGV7AuNp1-NNGqW-223" value="1" style="text;html=1;strokeColor=none;fillColor=none;align=center;verticalAlign=middle;whiteSpace=wrap;rounded=0;" parent="Xh2IqrGV7AuNp1-NNGqW-239" vertex="1">
          <mxGeometry x="4.839999999999975" y="4.199999999999989" width="20" height="20" as="geometry" />
        </mxCell>
        <mxCell id="Xh2IqrGV7AuNp1-NNGqW-224" value="2" style="text;html=1;strokeColor=none;fillColor=none;align=center;verticalAlign=middle;whiteSpace=wrap;rounded=0;" parent="Xh2IqrGV7AuNp1-NNGqW-239" vertex="1">
          <mxGeometry x="4.839999999999975" y="24.519999999999982" width="20" height="20" as="geometry" />
        </mxCell>
        <mxCell id="Xh2IqrGV7AuNp1-NNGqW-225" value="3" style="text;html=1;strokeColor=none;fillColor=none;align=center;verticalAlign=middle;whiteSpace=wrap;rounded=0;" parent="Xh2IqrGV7AuNp1-NNGqW-239" vertex="1">
          <mxGeometry x="4.839999999999975" y="44.51999999999998" width="20" height="20" as="geometry" />
        </mxCell>
        <mxCell id="Xh2IqrGV7AuNp1-NNGqW-226" value="4" style="text;html=1;strokeColor=none;fillColor=none;align=center;verticalAlign=middle;whiteSpace=wrap;rounded=0;" parent="Xh2IqrGV7AuNp1-NNGqW-239" vertex="1">
          <mxGeometry x="4.839999999999975" y="64.51999999999998" width="20" height="20" as="geometry" />
        </mxCell>
        <mxCell id="Xh2IqrGV7AuNp1-NNGqW-227" value="5" style="text;html=1;strokeColor=none;fillColor=none;align=center;verticalAlign=middle;whiteSpace=wrap;rounded=0;" parent="Xh2IqrGV7AuNp1-NNGqW-239" vertex="1">
          <mxGeometry x="4.839999999999975" y="84.51999999999998" width="20" height="20" as="geometry" />
        </mxCell>
        <mxCell id="Xh2IqrGV7AuNp1-NNGqW-228" value="6" style="text;html=1;strokeColor=none;fillColor=none;align=center;verticalAlign=middle;whiteSpace=wrap;rounded=0;" parent="Xh2IqrGV7AuNp1-NNGqW-239" vertex="1">
          <mxGeometry x="4.839999999999975" y="104.83999999999997" width="20" height="20" as="geometry" />
        </mxCell>
        <mxCell id="Xh2IqrGV7AuNp1-NNGqW-229" value="7" style="text;html=1;strokeColor=none;fillColor=none;align=center;verticalAlign=middle;whiteSpace=wrap;rounded=0;" parent="Xh2IqrGV7AuNp1-NNGqW-239" vertex="1">
          <mxGeometry x="4.839999999999975" y="124.83999999999997" width="20" height="20" as="geometry" />
        </mxCell>
        <mxCell id="Xh2IqrGV7AuNp1-NNGqW-230" value="8" style="text;html=1;strokeColor=none;fillColor=none;align=center;verticalAlign=middle;whiteSpace=wrap;rounded=0;" parent="Xh2IqrGV7AuNp1-NNGqW-239" vertex="1">
          <mxGeometry x="4.839999999999975" y="144.83999999999997" width="20" height="20" as="geometry" />
        </mxCell>
        <mxCell id="Xh2IqrGV7AuNp1-NNGqW-231" value="16" style="text;html=1;strokeColor=none;fillColor=none;align=center;verticalAlign=middle;whiteSpace=wrap;rounded=0;" parent="Xh2IqrGV7AuNp1-NNGqW-239" vertex="1">
          <mxGeometry x="94.83999999999997" y="4.679999999999978" width="20" height="20" as="geometry" />
        </mxCell>
        <mxCell id="Xh2IqrGV7AuNp1-NNGqW-232" value="15" style="text;html=1;strokeColor=none;fillColor=none;align=center;verticalAlign=middle;whiteSpace=wrap;rounded=0;" parent="Xh2IqrGV7AuNp1-NNGqW-239" vertex="1">
          <mxGeometry x="94.83999999999997" y="24.99999999999997" width="20" height="20" as="geometry" />
        </mxCell>
        <mxCell id="Xh2IqrGV7AuNp1-NNGqW-233" value="14" style="text;html=1;strokeColor=none;fillColor=none;align=center;verticalAlign=middle;whiteSpace=wrap;rounded=0;" parent="Xh2IqrGV7AuNp1-NNGqW-239" vertex="1">
          <mxGeometry x="94.83999999999997" y="44.99999999999997" width="20" height="20" as="geometry" />
        </mxCell>
        <mxCell id="Xh2IqrGV7AuNp1-NNGqW-234" value="13" style="text;html=1;strokeColor=none;fillColor=none;align=center;verticalAlign=middle;whiteSpace=wrap;rounded=0;" parent="Xh2IqrGV7AuNp1-NNGqW-239" vertex="1">
          <mxGeometry x="94.83999999999997" y="65" width="20" height="20" as="geometry" />
        </mxCell>
        <mxCell id="Xh2IqrGV7AuNp1-NNGqW-235" value="12" style="text;html=1;strokeColor=none;fillColor=none;align=center;verticalAlign=middle;whiteSpace=wrap;rounded=0;" parent="Xh2IqrGV7AuNp1-NNGqW-239" vertex="1">
          <mxGeometry x="94.83999999999997" y="85" width="20" height="20" as="geometry" />
        </mxCell>
        <mxCell id="Xh2IqrGV7AuNp1-NNGqW-236" value="11" style="text;html=1;strokeColor=none;fillColor=none;align=center;verticalAlign=middle;whiteSpace=wrap;rounded=0;" parent="Xh2IqrGV7AuNp1-NNGqW-239" vertex="1">
          <mxGeometry x="94.83999999999997" y="105.32" width="20" height="20" as="geometry" />
        </mxCell>
        <mxCell id="Xh2IqrGV7AuNp1-NNGqW-237" value="10" style="text;html=1;strokeColor=none;fillColor=none;align=center;verticalAlign=middle;whiteSpace=wrap;rounded=0;" parent="Xh2IqrGV7AuNp1-NNGqW-239" vertex="1">
          <mxGeometry x="94.83999999999997" y="125.32" width="20" height="20" as="geometry" />
        </mxCell>
        <mxCell id="Xh2IqrGV7AuNp1-NNGqW-238" value="9" style="text;html=1;strokeColor=none;fillColor=none;align=center;verticalAlign=middle;whiteSpace=wrap;rounded=0;" parent="Xh2IqrGV7AuNp1-NNGqW-239" vertex="1">
          <mxGeometry x="94.83999999999997" y="145.32" width="20" height="20" as="geometry" />
        </mxCell>
        <mxCell id="Xh2IqrGV7AuNp1-NNGqW-240" value="&lt;font style=&quot;font-size: 14px&quot; color=&quot;#ff6666&quot;&gt;Demux&lt;br&gt;HCF4051&lt;/font&gt;" style="text;html=1;strokeColor=none;fillColor=none;align=center;verticalAlign=middle;whiteSpace=wrap;rounded=0;" parent="Xh2IqrGV7AuNp1-NNGqW-239" vertex="1">
          <mxGeometry x="39.83999999999995" y="75" width="40" height="20" as="geometry" />
        </mxCell>
        <mxCell id="Xh2IqrGV7AuNp1-NNGqW-242" style="edgeStyle=orthogonalEdgeStyle;rounded=0;orthogonalLoop=1;jettySize=auto;html=1;exitX=0;exitY=0.5;exitDx=0;exitDy=0;entryX=1;entryY=0.5;entryDx=0;entryDy=0;startArrow=none;startFill=0;endArrow=none;endFill=0;endSize=6;strokeWidth=3;strokeColor=#33FFFF;" parent="1" source="Xh2IqrGV7AuNp1-NNGqW-68" target="Xh2IqrGV7AuNp1-NNGqW-86" edge="1">
          <mxGeometry relative="1" as="geometry" />
        </mxCell>
        <mxCell id="Xh2IqrGV7AuNp1-NNGqW-221" style="edgeStyle=orthogonalEdgeStyle;rounded=0;orthogonalLoop=1;jettySize=auto;html=1;exitX=0;exitY=0.5;exitDx=0;exitDy=0;entryX=1;entryY=0.5;entryDx=0;entryDy=0;endArrow=classic;endFill=1;endSize=6;strokeWidth=3;startArrow=none;startFill=0;" parent="1" source="Xh2IqrGV7AuNp1-NNGqW-55" target="Xh2IqrGV7AuNp1-NNGqW-78" edge="1">
          <mxGeometry relative="1" as="geometry">
            <Array as="points">
              <mxPoint x="-750" y="-325" />
              <mxPoint x="-750" y="-540" />
            </Array>
          </mxGeometry>
        </mxCell>
        <mxCell id="Xh2IqrGV7AuNp1-NNGqW-220" style="edgeStyle=orthogonalEdgeStyle;rounded=0;orthogonalLoop=1;jettySize=auto;html=1;exitX=1;exitY=0.5;exitDx=0;exitDy=0;entryX=0;entryY=0.5;entryDx=0;entryDy=0;endArrow=none;endFill=0;endSize=6;strokeWidth=3;strokeColor=#FF8000;" parent="1" source="Xh2IqrGV7AuNp1-NNGqW-77" target="Xh2IqrGV7AuNp1-NNGqW-48" edge="1">
          <mxGeometry relative="1" as="geometry" />
        </mxCell>
      </root>
    </mxGraphModel>
  </diagram>
</mxfile>
